<svg width="40" height="40" viewBox="0 0 40 40" fill="none" xmlns="http://www.w3.org/2000/svg">
<path fill-rule="evenodd" clip-rule="evenodd" d="M20 4.99999C11.7157 4.99999 5.00002 11.7157 5.00002 20C5.00002 28.2843 11.7157 35 20 35C28.2843 35 35 28.2843 35 20C35 11.7157 28.2843 4.99999 20 4.99999ZM1.66669 20C1.66669 9.87477 9.8748 1.66666 20 1.66666C30.1252 1.66666 38.3334 9.87477 38.3334 20C38.3334 30.1252 30.1252 38.3333 20 38.3333C9.8748 38.3333 1.66669 30.1252 1.66669 20Z" fill="#CFD6DE"/>
<path fill-rule="evenodd" clip-rule="evenodd" d="M23.0165 11.89C23.8136 11.4297 24.833 11.7028 25.2933 12.4999L34.86 29.0665C35.3203 29.8636 35.0472 30.883 34.2501 31.3433C33.453 31.8036 32.4337 31.5306 31.9733 30.7334L22.4067 14.1668C21.9464 13.3697 22.2194 12.3503 23.0165 11.89Z" fill="#CFD6DE"/>
<path fill-rule="evenodd" clip-rule="evenodd" d="M14.4833 13.3333C14.4833 12.4128 15.2295 11.6667 16.1499 11.6667H35.2833C36.2038 11.6667 36.9499 12.4128 36.9499 13.3333C36.9499 14.2538 36.2038 15 35.2833 15H16.1499C15.2295 15 14.4833 14.2538 14.4833 13.3333Z" fill="#CFD6DE"/>
<path fill-rule="evenodd" clip-rule="evenodd" d="M22.7002 1.99003C23.4973 2.45033 23.7703 3.46968 23.31 4.26679L13.7434 20.8335C13.2831 21.6306 12.2637 21.9036 11.4666 21.4433C10.6695 20.983 10.3965 19.9637 10.8568 19.1665L20.4234 2.59988C20.8837 1.80276 21.9031 1.52972 22.7002 1.99003Z" fill="#CFD6DE"/>
<path fill-rule="evenodd" clip-rule="evenodd" d="M5.74993 8.65669C6.54705 8.19638 7.56639 8.46942 8.02669 9.26653L17.5934 25.8332C18.0537 26.6303 17.7806 27.6497 16.9835 28.11C16.1864 28.5703 15.1671 28.2972 14.7067 27.5001L5.14008 10.9334C4.67978 10.1363 4.95282 9.11699 5.74993 8.65669Z" fill="#CFD6DE"/>
<path fill-rule="evenodd" clip-rule="evenodd" d="M3.05005 26.6667C3.05005 25.7462 3.79624 25 4.71672 25H23.85C24.7705 25 25.5167 25.7462 25.5167 26.6667C25.5167 27.5871 24.7705 28.3333 23.85 28.3333H4.71672C3.79624 28.3333 3.05005 27.5871 3.05005 26.6667Z" fill="#CFD6DE"/>
<path fill-rule="evenodd" clip-rule="evenodd" d="M28.5335 18.5567C29.3306 19.017 29.6037 20.0363 29.1433 20.8334L19.5767 37.4001C19.1164 38.1972 18.097 38.4703 17.2999 38.01C16.5028 37.5496 16.2298 36.5303 16.6901 35.7332L26.2567 19.1665C26.717 18.3694 27.7364 18.0964 28.5335 18.5567Z" fill="#CFD6DE"/>
</svg>
