<svg width="40" height="40" viewBox="0 0 40 40" fill="none" xmlns="http://www.w3.org/2000/svg">
<path d="M20 6.66668C22.7566 6.66668 25 8.91001 25 11.6667H28.3333C28.3333 7.07168 24.595 3.33334 20 3.33334C15.405 3.33334 11.6666 7.07168 11.6666 11.6667V15H9.99996C8.16163 15 6.66663 16.495 6.66663 18.3333V33.3333C6.66663 35.1717 8.16163 36.6667 9.99996 36.6667H30C31.8383 36.6667 33.3333 35.1717 33.3333 33.3333V18.3333C33.3333 16.495 31.8383 15 30 15H15V11.6667C15 8.91001 17.2433 6.66668 20 6.66668ZM30.0033 33.3333H21.6666V29.5367C22.6583 28.9583 23.3333 27.895 23.3333 26.6667C23.3333 24.8283 21.8383 23.3333 20 23.3333C18.1616 23.3333 16.6666 24.8283 16.6666 26.6667C16.6666 27.8933 17.3416 28.9583 18.3333 29.5367V33.3333H9.99996V18.3333H30L30.0033 33.3333Z" fill="#CFD6DE"/>
</svg>
