<svg width="40" height="40" viewBox="0 0 40 40" fill="none" xmlns="http://www.w3.org/2000/svg">
<path d="M20 1.25C12.3417 1.25 6.1117 7.48 6.1117 15.1383V15.1483C6.1096 17.2184 6.57195 19.2626 7.46469 21.1303C8.35743 22.998 9.65781 24.6416 11.27 25.94L11.2967 25.96V30.3117C11.2993 32.5486 12.189 34.6931 13.7706 36.275C15.3521 37.8568 17.4965 38.7469 19.7334 38.75H20.2667C22.5036 38.7474 24.6481 37.8577 26.23 36.2761C27.8119 34.6946 28.7019 32.5502 28.705 30.3133V25.9617C30.3241 24.6632 31.6307 23.0174 32.5282 21.146C33.4257 19.2746 33.8911 17.2255 33.89 15.15V15.1383C33.89 7.48 27.66 1.25 20.0017 1.25H20ZM13.7967 26.875H26.2034V30H13.7967V26.875ZM20.2667 36.25H19.735C18.5528 36.2487 17.3979 35.895 16.4176 35.2342C15.4374 34.5734 14.6763 33.6354 14.2317 32.54L14.2167 32.5H25.785C25.3444 33.6043 24.5834 34.5515 23.6 35.2198C22.6166 35.8881 21.4557 36.2469 20.2667 36.25V36.25ZM26.715 24.3367L26.6634 24.375H13.335L13.2834 24.3367C11.8382 23.2772 10.6623 21.8929 9.85052 20.2954C9.03875 18.6979 8.61382 16.9319 8.61003 15.14V15.1383C8.61003 8.85833 13.7184 3.75 19.9984 3.75C26.2784 3.75 31.3867 8.85833 31.3867 15.1383C31.3845 16.9244 30.9634 18.685 30.1573 20.2787C29.3511 21.8725 28.1824 23.2549 26.745 24.315L26.7134 24.3367H26.715Z" fill="#CFD6DE"/>
</svg>
