<svg width="40" height="40" viewBox="0 0 40 40" fill="none" xmlns="http://www.w3.org/2000/svg">
<path d="M21.6666 18.3333H25C25.442 18.3333 25.8659 18.5089 26.1785 18.8215C26.491 19.134 26.6666 19.558 26.6666 20C26.6666 20.442 26.491 20.8659 26.1785 21.1785C25.8659 21.4911 25.442 21.6667 25 21.6667H20C19.5579 21.6667 19.134 21.4911 18.8214 21.1785C18.5089 20.8659 18.3333 20.442 18.3333 20V13.3333C18.3333 12.8913 18.5089 12.4674 18.8214 12.1548C19.134 11.8423 19.5579 11.6667 20 11.6667C20.442 11.6667 20.8659 11.8423 21.1785 12.1548C21.491 12.4674 21.6666 12.8913 21.6666 13.3333V18.3333ZM13.3333 8.44999V6.66666C13.3333 5.34057 13.8601 4.0688 14.7978 3.13112C15.7354 2.19344 17.0072 1.66666 18.3333 1.66666H21.6666C22.9927 1.66666 24.2645 2.19344 25.2022 3.13112C26.1398 4.0688 26.6666 5.34057 26.6666 6.66666V8.44999C28.6943 9.6201 30.3781 11.3037 31.5484 13.3312C32.7187 15.3588 33.3343 17.6589 33.3333 20C33.3343 22.3411 32.7187 24.6412 31.5484 26.6687C30.3781 28.6963 28.6943 30.3799 26.6666 31.55V33.3333C26.6666 34.6594 26.1398 35.9312 25.2022 36.8689C24.2645 37.8065 22.9927 38.3333 21.6666 38.3333H18.3333C17.0072 38.3333 15.7354 37.8065 14.7978 36.8689C13.8601 35.9312 13.3333 34.6594 13.3333 33.3333V31.55C11.3056 30.3799 9.62186 28.6963 8.45154 26.6687C7.28121 24.6412 6.66559 22.3411 6.66663 20C6.66559 17.6589 7.28121 15.3588 8.45154 13.3312C9.62186 11.3037 11.3056 9.6201 13.3333 8.44999V8.44999ZM16.6666 7.08666C17.7556 6.80691 18.8756 6.6658 20 6.66666C21.15 6.66666 22.2666 6.81332 23.3333 7.08666V6.66666C23.3333 6.22463 23.1577 5.80071 22.8451 5.48814C22.5326 5.17558 22.1087 4.99999 21.6666 4.99999H18.3333C17.8913 4.99999 17.4673 5.17558 17.1548 5.48814C16.8422 5.80071 16.6666 6.22463 16.6666 6.66666V7.08666V7.08666ZM16.6666 32.9133V33.3333C16.6666 33.7753 16.8422 34.1993 17.1548 34.5118C17.4673 34.8244 17.8913 35 18.3333 35H21.6666C22.1087 35 22.5326 34.8244 22.8451 34.5118C23.1577 34.1993 23.3333 33.7753 23.3333 33.3333V32.9133C21.1465 33.4744 18.8534 33.4744 16.6666 32.9133ZM20 30C22.6521 30 25.1957 28.9464 27.071 27.0711C28.9464 25.1957 30 22.6522 30 20C30 17.3478 28.9464 14.8043 27.071 12.9289C25.1957 11.0536 22.6521 9.99999 20 9.99999C17.3478 9.99999 14.8043 11.0536 12.9289 12.9289C11.0535 14.8043 9.99996 17.3478 9.99996 20C9.99996 22.6522 11.0535 25.1957 12.9289 27.0711C14.8043 28.9464 17.3478 30 20 30V30Z" fill="#CFD6DE"/>
</svg>
