<svg width="40" height="40" viewBox="0 0 40 40" fill="none" xmlns="http://www.w3.org/2000/svg">
<path fill-rule="evenodd" clip-rule="evenodd" d="M6.66663 6.66668C5.74615 6.66668 4.99996 7.41287 4.99996 8.33334V25C4.99996 25.9205 5.74615 26.6667 6.66663 26.6667H33.3333C34.2538 26.6667 35 25.9205 35 25V8.33334C35 7.41287 34.2538 6.66668 33.3333 6.66668H6.66663ZM1.66663 8.33334C1.66663 5.57192 3.9052 3.33334 6.66663 3.33334H33.3333C36.0947 3.33334 38.3333 5.57192 38.3333 8.33334V25C38.3333 27.7614 36.0947 30 33.3333 30H6.66663C3.9052 30 1.66663 27.7614 1.66663 25V8.33334Z" fill="#CFD6DE"/>
<path fill-rule="evenodd" clip-rule="evenodd" d="M11.6666 35C11.6666 34.0795 12.4128 33.3333 13.3333 33.3333H26.6666C27.5871 33.3333 28.3333 34.0795 28.3333 35C28.3333 35.9205 27.5871 36.6667 26.6666 36.6667H13.3333C12.4128 36.6667 11.6666 35.9205 11.6666 35Z" fill="#CFD6DE"/>
<path fill-rule="evenodd" clip-rule="evenodd" d="M20 26.6667C20.9205 26.6667 21.6667 27.4128 21.6667 28.3333V35C21.6667 35.9205 20.9205 36.6667 20 36.6667C19.0796 36.6667 18.3334 35.9205 18.3334 35V28.3333C18.3334 27.4128 19.0796 26.6667 20 26.6667Z" fill="#CFD6DE"/>
</svg>
