<svg width="40" height="40" viewBox="0 0 40 40" fill="none" xmlns="http://www.w3.org/2000/svg">
<g clip-path="url(#clip0)">
<path fill-rule="evenodd" clip-rule="evenodd" d="M15.0419 1.70854C16.1358 0.614581 17.6196 0 19.1667 0C20.7138 0 22.1975 0.614581 23.2915 1.70854C24.3854 2.80251 25 4.28624 25 5.83333V23.765C26.2699 24.8126 27.239 26.1871 27.7974 27.7478C28.46 29.5994 28.5095 31.615 27.9386 33.497C27.3678 35.3789 26.2068 37.0273 24.6273 38.1988C23.0477 39.3703 21.1333 40.0028 19.1667 40.0028C17.2001 40.0028 15.2856 39.3703 13.7061 38.1988C12.1265 37.0273 10.9655 35.3789 10.3947 33.497C9.82384 31.615 9.87334 29.5994 10.5359 27.7478C11.0943 26.1871 12.0634 24.8126 13.3333 23.765V5.83333C13.3333 4.28624 13.9479 2.80251 15.0419 1.70854ZM19.1667 3.33333C18.5036 3.33333 17.8677 3.59673 17.3989 4.06557C16.9301 4.53441 16.6667 5.17029 16.6667 5.83333V24.6C16.6667 25.1566 16.3888 25.6766 15.9259 25.9858C14.8854 26.6811 14.096 27.6925 13.6744 28.8708C13.2527 30.0491 13.2212 31.3318 13.5845 32.5294C13.9478 33.727 14.6866 34.776 15.6917 35.5215C16.6969 36.267 17.9152 36.6694 19.1667 36.6694C20.4181 36.6694 21.6364 36.267 22.6416 35.5215C23.6468 34.776 24.3856 33.727 24.7488 32.5294C25.1121 31.3318 25.0806 30.0491 24.659 28.8708C24.2374 27.6925 23.448 26.6811 22.4074 25.9858C21.9446 25.6766 21.6667 25.1566 21.6667 24.6V5.83333C21.6667 5.17029 21.4033 4.53441 20.9344 4.06557C20.4656 3.59673 19.8297 3.33333 19.1667 3.33333Z" fill="#CFD6DE"/>
</g>
<defs>
<clipPath id="clip0">
<rect width="40" height="40" fill="white"/>
</clipPath>
</defs>
</svg>
